HIERARCHY
ROOT Hips
{
    OFFSET 0.000000 0.000000 0.000000
    CHANNELS 6 Xposition Yposition Zposition Zrotation Xrotation Yrotation
    JOINT Spine
    {
        OFFSET -0.000000 7.246840 0.000000
        CHANNELS 3 Zrotation Xrotation Yrotation
        JOINT Spine1
        {
            OFFSET -0.000000 20.289354 0.000000
            CHANNELS 3 Zrotation Xrotation Yrotation
            JOINT Neck
            {
                OFFSET -0.000000 20.206032 1.836912
                CHANNELS 3 Zrotation Xrotation Yrotation
                JOINT Head
                {
                    OFFSET -0.000000 12.372654 -1.767522
                    CHANNELS 3 Zrotation Xrotation Yrotation
                    End Site
                    {
                        OFFSET -0.000000 22.094025 0.000000
                    }
                }
            }
            JOINT LeftShoulder
            {
                OFFSET 3.465871 17.201674 -0.568930
                CHANNELS 3 Zrotation Xrotation Yrotation
                JOINT LeftArm
                {
                    OFFSET 14.070313 0.000000 0.000000
                    CHANNELS 3 Zrotation Xrotation Yrotation
                    JOINT LeftForeArm
                    {
                        OFFSET 26.549477 0.000000 0.000000
                        CHANNELS 3 Zrotation Xrotation Yrotation
                        JOINT LeftHand
                        {
                            OFFSET 18.880413 0.000000 0.000000
                            CHANNELS 3 Zrotation Xrotation Yrotation
                            End Site
                            {
                                OFFSET 13.256415 0.000000 0.000000
                            }
                        }
                    }
                }
            }
            JOINT RightShoulder
            {
                OFFSET -3.526370 17.201674 -0.568930
                CHANNELS 3 Zrotation Xrotation Yrotation
                JOINT RightArm
                {
                    OFFSET -14.070313 0.000000 0.000000
                    CHANNELS 3 Zrotation Xrotation Yrotation
                    JOINT RightForeArm
                    {
                        OFFSET -26.549477 0.000000 0.000000
                        CHANNELS 3 Zrotation Xrotation Yrotation
                        JOINT RightHand
                        {
                            OFFSET -18.880413 0.000000 0.000000
                            CHANNELS 3 Zrotation Xrotation Yrotation
                            End Site
                            {
                                OFFSET -13.256415 0.000000 0.000000
                            }
                        }
                    }
                }
            }
        }
    }
    JOINT LeftUpLeg
    {
        OFFSET 8.837609 0.000000 0.000000
        CHANNELS 3 Zrotation Xrotation Yrotation
        JOINT LeftLeg
        {
            OFFSET -0.000000 -41.345005 0.000000
            CHANNELS 3 Zrotation Xrotation Yrotation
            JOINT LeftFoot
            {
                OFFSET -0.000000 -35.500874 0.000000
                CHANNELS 3 Zrotation Xrotation Yrotation
                JOINT LeftToeBase
                {
                    OFFSET -0.000000 -5.744446 13.256415
                    CHANNELS 3 Zrotation Xrotation Yrotation
                    End Site
                    {
                        OFFSET -0.000000 0.000000 3.535044
                    }
                }
            }
        }
    }
    JOINT RightUpLeg
    {
        OFFSET -8.837609 0.000000 0.000000
        CHANNELS 3 Zrotation Xrotation Yrotation
        JOINT RightLeg
        {
            OFFSET -0.000000 -41.345005 0.000000
            CHANNELS 3 Zrotation Xrotation Yrotation
            JOINT RightFoot
            {
                OFFSET -0.000000 -35.500874 0.000000
                CHANNELS 3 Zrotation Xrotation Yrotation
                JOINT RightToeBase
                {
                    OFFSET -0.000000 -5.744446 13.256415
                    CHANNELS 3 Zrotation Xrotation Yrotation
                    End Site
                    {
                        OFFSET -0.000000 0.000000 3.535044
                    }
                }
            }
        }
    }
}
MOTION
Frames:    11
Frame Time:    0.010000
-3.494886    82.326981    36.307560    -1.834337    3.988581    59.348042    -6.166245    -9.114009    -5.018755    6.565341    11.030080    -5.161472    4.772567    23.850994    -31.630096    12.027828    -44.434181    -26.374197    9.037288    0.657760    3.065557    -78.993607    53.423645    -15.990507    4.727258    -15.660901    -22.996206    -37.319523    -12.843836    -5.753190    -4.005922    -1.048617    14.625357    66.786598    42.976234    14.230998    -7.543474    -6.411685    20.675802    21.457891    -2.577844    12.970754    -7.758656    0.444782    18.238754    -0.693734    5.805190    6.741654    6.164007    -6.127065    -0.740521    -1.303695    -5.391992    1.888076    -10.520063    -5.058639    14.195180    10.146349    -11.610126    7.270895    7.412575    8.707143    6.357835    -3.227070    5.333275    5.477050    
-3.502697    82.332352    36.293636    -1.849201    3.989102    59.441498    -6.161674    -9.097824    -4.991732    6.538376    11.024141    -5.132734    4.776968    23.850224    -31.640533    11.998569    -44.415470    -26.401823    9.036021    0.642152    3.078260    -79.011559    53.395374    -15.970590    4.810471    -15.537837    -22.918901    -37.554653    -12.698351    -5.737479    -4.002733    -1.040921    14.653355    66.672630    43.067726    14.344629    -7.534997    -6.386421    20.761847    21.439880    -2.542515    13.011308    -7.751441    0.433047    18.212545    -0.694177    5.784082    6.719965    6.146329    -6.080346    -0.790185    -1.303036    -5.363976    1.886771    -10.471882    -5.120159    14.204394    10.049131    -11.463726    7.105383    7.397507    8.644805    6.416377    -3.238182    5.307515    5.497264    
-3.512590    82.337875    36.280872    -1.865864    3.994030    59.545029    -6.164483    -9.071877    -4.965939    6.507449    11.004473    -5.103997    4.792758    23.853615    -31.656361    11.983914    -44.405323    -26.425644    9.039229    0.644063    3.084024    -79.024155    53.389671    -15.948450    4.818805    -15.544639    -22.903101    -37.579781    -12.711007    -5.713073    -3.981803    -1.064336    14.690625    66.611855    43.136044    14.388337    -7.509524    -6.393051    20.867241    21.390162    -2.544522    13.053523    -7.743847    0.423129    18.176805    -0.703926    5.748102    6.737977    6.121321    -6.034216    -0.877206    -1.286095    -5.342563    1.861977    -10.470370    -5.134120    14.161904    10.028711    -11.434121    7.078187    7.422400    8.650784    6.380502    -3.212473    5.259160    5.456226    
-3.523523    82.343651    36.267319    -1.892121    4.000671    59.639053    -6.161419    -9.069007    -4.939320    6.484842    11.008866    -5.075851    4.775639    23.849600    -31.651209    11.963234    -44.386356    -26.434299    9.028128    0.636257    3.084003    -79.042450    53.344093    -15.910219    4.797508    -15.528753    -22.904158    -37.540913    -12.715912    -5.668915    -3.974285    -1.088170    14.737433    66.542984    43.149929    14.457397    -7.484640    -6.255546    20.988880    21.413696    -2.417009    12.964095    -7.733949    0.405629    18.145533    -0.712066    5.709223    6.722735    6.118774    -5.988092    -0.940490    -1.301229    -5.327412    1.883697    -10.468826    -5.160415    14.140983    10.008864    -11.409288    7.075093    7.379610    8.625712    6.315682    -3.202151    5.239055    5.439776    
-3.533027    82.349663    36.254864    -1.912045    4.007610    59.739708    -6.183037    -9.084776    -4.906438    6.484432    11.040039    -5.042140    4.789768    23.879618    -31.650679    11.925525    -44.416416    -26.447153    9.017736    0.623498    3.026065    -79.088943    53.311821    -15.848999    4.776360    -15.594714    -22.914749    -37.389977    -12.806258    -5.633531    -3.963800    -1.116471    14.802158    66.461113    43.188412    14.516121    -7.457857    -6.211207    21.071568    21.435987    -2.369341    12.963388    -7.728447    0.398087    18.088480    -0.721788    5.667211    6.708213    6.081259    -5.950612    -0.987187    -1.300490    -5.315228    1.882476    -10.468953    -5.180236    14.075143    10.000821    -11.370763    7.051723    7.351938    8.612584    6.314120    -3.182355    5.242579    5.405994    
-3.543564    82.355553    36.243004    -1.933260    4.010530    59.843185    -6.225555    -9.006336    -4.851756    6.524708    10.930955    -4.985971    4.850812    23.906153    -31.682266    11.791945    -44.413353    -26.542717    9.004488    0.637249    2.965974    -79.178566    53.264450    -15.787273    4.801994    -15.568460    -22.836397    -37.392540    -12.783404    -5.616582    -3.941770    -1.116855    14.759234    66.331192    43.348000    14.586956    -7.412439    -6.177600    21.116179    21.439043    -2.309256    13.127441    -7.717719    0.396607    18.019825    -0.737766    5.613447    6.692518    6.059559    -5.909294    -1.015754    -1.283150    -5.307278    1.857280    -10.465942    -5.192426    14.037960    9.978015    -11.359536    7.044646    7.348543    8.618093    6.255837    -3.161512    5.197219    5.372992    
-3.556095    82.360771    36.230331    -1.956913    4.019698    59.952106    -6.233440    -8.987944    -4.825521    6.504401    10.918063    -4.957451    4.865417    23.908613    -31.702528    11.744428    -44.386116    -26.589880    8.993454    0.618130    2.976295    -79.211182    53.203617    -15.745489    4.788395    -15.558144    -22.788605    -37.476990    -12.850425    -5.383634    -3.931297    -1.141888    14.802779    66.239563    43.436333    14.687708    -7.260651    -6.251199    21.182304    21.147512    -2.442367    13.125450    -7.709342    0.384110    17.925863    -0.752561    5.573154    6.668419    6.014773    -5.874155    -1.014895    -1.270000    -5.299932    1.838158    -10.468211    -5.211827    14.006130    9.957407    -11.337494    7.028376    7.332394    8.593029    6.205952    -3.148096    5.204925    5.349813    
-3.570695    82.364655    36.217625    -1.982345    4.025620    60.061543    -6.233568    -8.958143    -4.798828    6.480143    10.893064    -4.928628    4.842493    23.920544    -31.707417    11.745982    -44.347446    -26.599537    8.987329    0.630426    2.985471    -79.218124    53.167439    -15.728744    4.787772    -15.547438    -22.766201    -37.451057    -12.872759    -5.290742    -3.933394    -1.180436    14.838534    66.166542    43.561230    14.790628    -7.240873    -6.170576    21.218914    21.194662    -2.367937    13.067994    -7.698462    0.378485    17.848837    -0.772152    5.514843    6.649394    6.000670    -5.835760    -1.053197    -1.263506    -5.273470    1.828439    -10.464067    -5.236310    13.922324    9.948771    -11.296173    7.022717    7.310165    8.493838    6.292289    -3.070977    5.182693    5.220005    
-3.584696    82.369270    36.204762    -2.003598    4.033438    60.169991    -6.200548    -8.991485    -4.784184    6.397631    10.952079    -4.910195    4.793907    23.988279    -31.713978    11.849522    -44.349335    -26.554012    8.969270    0.630450    2.971655    -79.165787    53.118408    -15.722555    4.790003    -15.594228    -22.738993    -37.456520    -12.911056    -5.319389    -3.915474    -1.211972    14.959078    66.039978    43.645416    14.984575    -7.206588    -6.065132    21.104755    21.268604    -2.240988    13.205351    -7.693748    0.368720    17.779383    -0.782110    5.466731    6.632923    5.956478    -5.807843    -1.086761    -1.264833    -5.273932    1.830365    -10.465045    -5.255745    13.876113    9.918142    -11.170330    6.937787    7.242856    8.500061    6.258915    -3.130667    5.185840    5.321209    
-3.598194    82.373138    36.192745    -2.019578    4.042003    60.273594    -6.190384    -8.967897    -4.752686    6.341941    10.952340    -4.875437    4.800893    24.011314    -31.716236    11.833064    -44.354061    -26.562557    8.982553    0.639247    2.983793    -79.134750    53.143803    -15.730984    4.793891    -15.682822    -22.730286    -37.366405    -12.986483    -5.375054    -3.909030    -1.284334    15.026282    66.052071    43.721581    15.003633    -7.223065    -6.024225    21.128883    21.383430    -2.169412    13.268497    -7.697555    0.369709    17.753193    -0.783974    5.404181    6.601570    5.934024    -5.764262    -1.144442    -1.256118    -5.273688    1.817752    -10.469585    -5.271842    13.847160    9.896065    -11.153317    6.897222    7.262288    8.494091    6.233047    -3.112345    5.147058    5.292095    
-3.610334    82.377274    36.180218    -2.033403    4.047059    60.381424    -6.175313    -8.943073    -4.723639    6.286849    10.952057    -4.843616    4.824687    24.021328    -31.714930    11.728628    -44.345955    -26.612892    8.973685    0.680582    2.990362    -79.038628    53.094788    -15.820349    4.678535    -16.135765    -22.671246    -37.176655    -13.354084    -5.757941    -3.898252    -1.297884    15.073020    65.969254    43.811275    15.113082    -7.207737    -6.014782    21.201008    21.422815    -2.166174    13.201483    -7.702194    0.372173    17.729252    -0.780556    5.342969    6.551011    5.925703    -5.714492    -1.175076    -1.247226    -5.261728    1.804742    -10.472780    -5.284662    13.770767    9.888988    -11.113020    6.899769    7.217177    8.486954    6.197742    -3.104640    5.137501    5.279497    
